<svg width="9" height="5" viewBox="0 0 9 5" fill="none" xmlns="http://www.w3.org/2000/svg">
<path fill-rule="evenodd" clip-rule="evenodd" d="M4.54684 4.93577C4.50951 4.97165 4.45052 4.97164 4.41321 4.93575L0.274666 0.956164C0.248936 0.931423 0.245492 0.929354 0.222272 0.902242C0.17054 0.84184 0.0842635 0.767218 0.051727 0.69465C0.0218941 0.628113 0.00698401 0.562045 0.00501374 0.498996C1.37431e-05 0.364996 0.0550137 0.244996 0.149014 0.168996C0.212014 0.116996 0.293014 0.0849963 0.386014 0.0799963C0.491996 0.0740534 0.613675 0.10441 0.742305 0.182726C0.744757 0.184219 0.754308 0.194179 0.756236 0.196306C0.778975 0.221388 0.971915 0.398009 0.99666 0.421114L4.39721 3.59622C4.44831 3.64392 4.52764 3.64384 4.57864 3.59603L7.72578 0.645648C7.73974 0.632562 8.20266 0.198696 8.21601 0.184996C8.31201 0.0859964 8.41501 0.0359963 8.51501 0.0219963C8.66701 -3.65637e-06 8.81001 0.0619963 8.90501 0.166996C8.97201 0.241996 9.00001 0.351996 8.99501 0.462996C8.98801 0.590996 8.93701 0.719996 8.85001 0.798996C8.84168 0.806608 8.39403 1.23863 8.38589 1.24645L4.54684 4.93577Z" fill="#23395E"/>
</svg>
