<svg width="25" height="26" viewBox="0 0 25 26" fill="none" xmlns="http://www.w3.org/2000/svg">
<path fill-rule="evenodd" clip-rule="evenodd" d="M7.69593 16.972C6.05393 15.173 5.02993 12.764 5.02993 10.11C5.02993 4.544 9.50293 0 15.0149 0C20.5269 0 24.9999 4.544 24.9999 10.11C24.9999 15.676 20.5269 20.221 15.0149 20.221C12.7709 20.221 10.7079 19.473 9.03593 18.207L1.61193 25.725C1.43093 25.908 1.20493 26 0.978926 26C0.752926 26 0.511926 25.908 0.345926 25.725C-7.42078e-05 25.375 -7.42078e-05 24.795 0.345926 24.429L7.69593 16.972ZM23.1929 10.11C23.1929 5.551 19.5329 1.83 15.0149 1.83C10.5119 1.83 6.83693 5.535 6.83693 10.11C6.83693 14.685 10.4969 18.39 15.0149 18.39C19.5329 18.39 23.1929 14.67 23.1929 10.11Z" fill="#2A426B"/>
</svg>
