<svg width="13" height="13" viewBox="0 0 13 13" fill="none" xmlns="http://www.w3.org/2000/svg">
<path fill-rule="evenodd" clip-rule="evenodd" d="M0 0.5C0 0.223858 0.223858 0 0.5 0H4.5C4.77614 0 5 0.223858 5 0.5C5 0.776142 4.77614 1 4.5 1H1V12H4.5C4.77614 12 5 12.2239 5 12.5C5 12.7761 4.77614 13 4.5 13H0.5C0.223858 13 0 12.7761 0 12.5V0.5ZM9.17157 2.96447L12.3536 6.14645C12.5488 6.34171 12.5488 6.65829 12.3536 6.85355L9.17157 10.0355C8.97631 10.2308 8.65973 10.2308 8.46447 10.0355C8.2692 9.84027 8.2692 9.52369 8.46447 9.32843L10.7929 7C10.7929 7 5.5 7 5 7C4.5 7 4 7 4 6.5C4 6 4.5 6 5 6C5.5 6 10.7929 6 10.7929 6L8.46447 3.67157C8.2692 3.47631 8.2692 3.15973 8.46447 2.96447C8.65973 2.7692 8.97631 2.7692 9.17157 2.96447Z" fill="#B8C0CE"/>
</svg>
