<svg width="60" height="60" viewBox="0 0 60 60" fill="none" xmlns="http://www.w3.org/2000/svg">
<path d="M3.18664 26.2158C2.10275 26.217 1.09361 26.7682 0.507201 27.6794C-0.0792057 28.5905 -0.162642 29.737 0.285665 30.7234L4.20698 39.3437C4.73633 40.5104 5.47203 41.572 6.3787 42.4775L12.5448 48.6399C12.1963 49.0076 12.0013 49.4944 11.9996 50.0008V58.0002C11.9996 59.1046 12.8953 60 14.0003 60H25.0039C26.1089 60 27.0046 59.1046 27.0046 58.0002V50.0008C27.0046 48.8963 26.1089 48.001 25.0039 48.001V46.1401C25.0345 43.7722 24.2619 41.4637 22.8122 39.5907C21.9615 38.4725 20.8022 37.6276 19.4771 37.1599C17.3706 36.275 15.4333 35.0321 13.7512 33.4862C12.19 32.1966 9.97018 32.075 8.27734 33.1862L6.11862 28.1486C5.61686 26.9755 4.46306 26.2148 3.18664 26.2158ZM25.0039 58.0002H14.0003V50.0008H25.0039V58.0002ZM6.51775 34.1531C7.11224 35.5445 7.96834 36.809 9.03959 37.8778L13.6101 42.4465C13.8613 42.7064 14.2332 42.8106 14.583 42.7191C14.9327 42.6276 15.2058 42.3546 15.2974 42.005C15.3889 41.6554 15.2846 41.2836 15.0246 41.0326L10.4541 36.464C9.99489 36.0057 9.58209 35.5033 9.22165 34.9641C10.1825 34.2246 11.5271 34.247 12.4627 35.0181C14.3322 36.7336 16.4932 38.1017 18.8439 39.0577C19.8005 39.4061 20.6348 40.0257 21.2447 40.8406C22.4126 42.358 23.0324 44.2258 23.0033 46.1401V48.001H14.7315L7.79117 41.0636C7.05426 40.3276 6.45616 39.4649 6.02558 38.5168L2.10427 29.8965C1.93697 29.5286 1.96811 29.1009 2.18694 28.7611C2.40577 28.4212 2.78232 28.2158 3.18664 28.2156C3.6628 28.2149 4.09331 28.4987 4.28 28.9366L6.51775 34.1531Z" fill="#08B1C4"/>
<path d="M22.0029 53.0006H21.0026C20.4501 53.0006 20.0023 53.4482 20.0023 54.0005C20.0023 54.5527 20.4501 55.0004 21.0026 55.0004H22.0029C22.5554 55.0004 23.0033 54.5527 23.0033 54.0005C23.0033 53.4482 22.5554 53.0006 22.0029 53.0006Z" fill="#08B1C4"/>
<path d="M55.8062 39.3447L59.7276 30.7234C60.4389 29.1128 59.7093 27.2308 58.098 26.5198C56.4867 25.8088 54.6039 26.538 53.8926 28.1486L51.7339 33.1832C50.0417 32.0708 47.8214 32.1925 46.2611 33.4832C44.5784 35.0288 42.6408 36.2717 40.5341 37.1569C39.209 37.6246 38.0497 38.4695 37.199 39.5877C35.7486 41.4615 34.9761 43.7712 35.0073 46.1402V48.001C33.9023 48.001 33.0066 48.8964 33.0066 50.0008V58.0002C33.0066 59.1046 33.9023 60 35.0073 60H46.011C47.1159 60 48.0116 59.1046 48.0116 58.0002V50.0008C48.0104 49.4946 47.8162 49.0079 47.4685 48.6399L53.6345 42.4775C54.5409 41.5722 55.2766 40.511 55.8062 39.3447ZM46.011 58.0002H35.0073V50.0008H46.011V58.0002ZM45.2797 48.001H37.0079V46.1402C36.9776 44.2263 37.596 42.3585 38.7625 40.8406C39.3724 40.0257 40.2067 39.4061 41.1633 39.0577C43.5142 38.1015 45.6755 36.7335 47.5455 35.0181C48.481 34.2484 49.8243 34.2264 50.7846 34.9651C50.4246 35.5044 50.0121 36.0068 49.5532 36.465L44.9826 41.0336C44.6035 41.4259 44.6089 42.0496 44.9948 42.4353C45.3807 42.821 46.0046 42.8264 46.3971 42.4475L50.9676 37.8788C52.0389 36.81 52.895 35.5455 53.4895 34.1541L55.7272 28.9366C55.9144 28.4993 56.3447 28.216 56.8206 28.2166C57.2246 28.2169 57.6009 28.4223 57.8197 28.7618C58.0384 29.1013 58.0698 29.5287 57.903 29.8965L53.9816 38.5178C53.5511 39.4659 52.953 40.3286 52.216 41.0646L45.2797 48.001Z" fill="#08B1C4"/>
<path d="M39.0086 53.0006H38.0083C37.4558 53.0006 37.0079 53.4482 37.0079 54.0005C37.0079 54.5527 37.4558 55.0004 38.0083 55.0004H39.0086C39.5611 55.0004 40.0089 54.5527 40.0089 54.0005C40.0089 53.4482 39.5611 53.0006 39.0086 53.0006Z" fill="#08B1C4"/>
<path d="M39.5088 35.457C39.5412 35.4313 39.5722 35.4039 39.6018 35.375C42.3799 33.74 44.6994 31.4296 46.3451 28.6586C46.3906 28.6108 46.4311 28.5585 46.4661 28.5026C46.4787 28.4716 46.4894 28.4399 46.4981 28.4076C49.8499 22.5857 49.8499 15.4211 46.4981 9.5992C46.4896 9.56522 46.4789 9.53182 46.4661 9.49921C46.4406 9.46604 46.4129 9.43464 46.3831 9.40522C44.735 6.60694 42.4013 4.27419 39.6018 2.62678C39.5722 2.59788 39.5412 2.57052 39.5088 2.54479C39.4788 2.52779 39.4458 2.52779 39.4148 2.51379C33.5901 -0.837931 26.4211 -0.837931 20.5965 2.51379C20.5645 2.52218 20.5331 2.53253 20.5024 2.54479C20.47 2.57052 20.439 2.59788 20.4094 2.62678C17.6097 4.27387 15.2759 6.6067 13.6281 9.40522C13.5984 9.43464 13.5706 9.46604 13.5451 9.49921C13.5323 9.53182 13.5216 9.56522 13.5131 9.5992C10.1613 15.4211 10.1613 22.5857 13.5131 28.4076C13.5218 28.4399 13.5325 28.4716 13.5451 28.5026C13.5801 28.5585 13.6207 28.6108 13.6661 28.6586C15.3118 31.4296 17.6314 33.74 20.4094 35.375C20.439 35.4039 20.47 35.4313 20.5024 35.457C20.5443 35.478 20.5878 35.4957 20.6325 35.51C26.4393 38.8324 33.572 38.8324 39.3787 35.51C39.4234 35.4957 39.4669 35.478 39.5088 35.457ZM39.3537 33.1882L38.3534 31.4584C39.977 30.3674 41.3733 28.9717 42.4648 27.3487L44.1954 28.3486C42.9236 30.271 41.2769 31.917 39.3537 33.1882ZM13.0509 20.0033H15.0516C15.1784 21.9529 15.6883 23.8584 16.5521 25.6109L14.8175 26.6108C13.7827 24.5523 13.1814 22.3034 13.0509 20.0033ZM14.8205 11.395L16.5551 12.395C15.6901 14.1476 15.1792 16.0534 15.0516 18.0035H13.0509C13.1822 15.7029 13.7845 13.4536 14.8205 11.395ZM17.0013 19.0034C17.0013 11.8243 22.8235 6.0045 30.0056 6.0045C37.1877 6.0045 43.01 11.8243 43.01 19.0034C43.01 26.1825 37.1877 32.0023 30.0056 32.0023C22.8269 31.9941 17.0095 26.1791 17.0013 19.0034ZM31.0059 4.05566V2.05583C33.3075 2.18708 35.5577 2.78912 37.6172 3.82468L36.6168 5.55854C34.8635 4.69389 32.9569 4.1832 31.0059 4.05566ZM29.0053 4.05566C27.0549 4.18239 25.1486 4.69206 23.3954 5.55554L22.3951 3.82168C24.4544 2.78729 26.7042 2.18628 29.0053 2.05583V4.05566ZM46.9603 18.0035H44.9596C44.8328 16.0539 44.323 14.1485 43.4591 12.396L45.1937 11.396C46.2285 13.4546 46.8298 15.7034 46.9603 18.0035ZM45.1907 26.6118L43.4561 25.6119C44.3211 23.8593 44.832 21.9534 44.9596 20.0033H46.9603C46.829 22.304 46.2267 24.5532 45.1907 26.6118ZM29.0053 33.9512V35.951C26.7037 35.8197 24.4535 35.2177 22.3941 34.1821L23.3944 32.4483C25.1477 33.3129 27.0544 33.8236 29.0053 33.9512ZM31.0059 33.9512C32.9563 33.8244 34.8626 33.3148 36.6158 32.4513L37.6162 34.1851C35.5568 35.2195 33.307 35.8205 31.0059 35.951V33.9512ZM44.1964 9.65919L42.4658 10.6591C41.3743 9.03616 39.978 7.64045 38.3544 6.54946L39.3547 4.8196C41.2779 6.09079 42.9246 7.73684 44.1964 9.65919ZM20.6575 4.8186L21.6578 6.54846C20.0342 7.63945 18.6379 9.03516 17.5464 10.6581L15.8159 9.65819C17.0876 7.73584 18.7343 6.08979 20.6575 4.8186ZM15.8149 28.3476L17.5454 27.3477C18.6369 28.9707 20.0332 30.3664 21.6568 31.4574L20.6565 33.1872C18.7333 31.916 17.0866 30.27 15.8149 28.3476Z" fill="#08B1C4"/>
<path d="M25.0039 25.0029C24.4515 25.0029 24.0036 25.4506 24.0036 26.0028C24.0036 26.5551 24.4515 27.0027 25.0039 27.0027H29.0053V29.0026C29.0053 29.5548 29.4531 30.0025 30.0056 30.0025C30.5581 30.0025 31.0059 29.5548 31.0059 29.0026V27.0027H31.5061C33.9922 27.0027 36.0076 24.9882 36.0076 22.5031C36.0076 20.018 33.9922 18.0035 31.5061 18.0035H31.0059V13.0039H35.0073C35.5597 13.0039 36.0076 12.5562 36.0076 12.004C36.0076 11.4518 35.5597 11.0041 35.0073 11.0041H31.0059V9.00425C31.0059 8.45201 30.5581 8.00433 30.0056 8.00433C29.4531 8.00433 29.0053 8.45201 29.0053 9.00425V11.0041H28.5051C26.019 11.0041 24.0036 13.0186 24.0036 15.5037C24.0036 17.9888 26.019 20.0033 28.5051 20.0033H29.0053V25.0029H25.0039ZM28.5051 18.0035C27.1239 18.0035 26.0043 16.8843 26.0043 15.5037C26.0043 14.1231 27.1239 13.0039 28.5051 13.0039H29.0053V18.0035H28.5051ZM31.0059 20.0033H31.5061C32.8873 20.0033 34.0069 21.1225 34.0069 22.5031C34.0069 23.8837 32.8873 25.0029 31.5061 25.0029H31.0059V20.0033Z" fill="#08B1C4"/>
</svg>
