<svg width="9" height="5" viewBox="0 0 9 5" fill="none" xmlns="http://www.w3.org/2000/svg">
<path fill-rule="evenodd" clip-rule="evenodd" d="M4.54678 4.93577C4.50945 4.97165 4.45046 4.97164 4.41314 4.93575L0.274605 0.956164C0.248875 0.931423 0.245431 0.929354 0.222211 0.902242C0.170479 0.84184 0.0842024 0.767218 0.0516659 0.69465C0.0218331 0.628113 0.00692297 0.562045 0.00495271 0.498996C-4.72921e-05 0.364996 0.0549527 0.244996 0.148953 0.168996C0.211953 0.116996 0.292953 0.0849963 0.385953 0.0799963C0.491935 0.0740534 0.613614 0.10441 0.742244 0.182726C0.744696 0.184219 0.754247 0.194179 0.756175 0.196306C0.778914 0.221388 0.971854 0.398009 0.996599 0.421114L4.39715 3.59622C4.44825 3.64392 4.52758 3.64384 4.57858 3.59603L7.72572 0.645648C7.73968 0.632562 8.2026 0.198696 8.21595 0.184996C8.31195 0.0859964 8.41495 0.0359963 8.51495 0.0219963C8.66695 -3.65637e-06 8.80995 0.0619963 8.90495 0.166996C8.97195 0.241996 8.99995 0.351996 8.99495 0.462996C8.98795 0.590996 8.93695 0.719996 8.84995 0.798996C8.84162 0.806608 8.39397 1.23863 8.38583 1.24645L4.54678 4.93577Z" fill="#23395E"/>
</svg>
