<svg width="9" height="5" viewBox="0 0 9 5" fill="none" xmlns="http://www.w3.org/2000/svg">
<path fill-rule="evenodd" clip-rule="evenodd" d="M4.54703 4.93577C4.5097 4.97165 4.4507 4.97164 4.41339 4.93575L0.274849 0.956164C0.249119 0.931423 0.245675 0.929354 0.222455 0.902242C0.170724 0.84184 0.0844466 0.767218 0.0519101 0.69465C0.0220772 0.628113 0.00716711 0.562045 0.00519685 0.498996C0.000196849 0.364996 0.0551969 0.244996 0.149197 0.168996C0.212197 0.116996 0.293197 0.0849963 0.386197 0.0799963C0.492179 0.0740534 0.613858 0.10441 0.742488 0.182726C0.744941 0.184219 0.754491 0.194179 0.756419 0.196306C0.779159 0.221388 0.972098 0.398009 0.996843 0.421114L4.3974 3.59622C4.44849 3.64392 4.52783 3.64384 4.57883 3.59603L7.72596 0.645648C7.73992 0.632562 8.20284 0.198696 8.2162 0.184996C8.3122 0.0859964 8.4152 0.0359963 8.5152 0.0219963C8.6672 -3.65637e-06 8.8102 0.0619963 8.9052 0.166996C8.9722 0.241996 9.0002 0.351996 8.9952 0.462996C8.9882 0.590996 8.9372 0.719996 8.8502 0.798996C8.84187 0.806608 8.39421 1.23863 8.38608 1.24645L4.54703 4.93577Z" fill="white"/>
</svg>
