<svg width="60" height="60" viewBox="0 0 60 60" fill="none" xmlns="http://www.w3.org/2000/svg">
<path d="M12 18H40V22.5H41.75V17C41.75 16.4477 41.3022 16 40.75 16H34V9C33.9946 4.03174 29.9683 0.00537774 25 6.6454e-06H23C21.7979 -0.0014582 20.6074 0.239264 19.5 0.708014C18.3926 0.239264 17.2021 -0.0014582 16 6.6454e-06H14C9.03174 0.00537774 5.00537 4.03174 5 9V16H1C0.447754 16 0 16.4477 0 17V58.9999C0 59.5522 0.447754 59.9999 1 59.9999H25.75V57.9999H12V18ZM19.5 2.94678C21.6631 4.1958 22.9966 6.50244 23 9V16H16V9C16.0034 6.50244 17.3369 4.1958 19.5 2.94678ZM23 2H25C28.8643 2.0044 31.9956 5.13574 32 9V16H25V9C25 6.34131 23.8218 3.81934 21.7832 2.1128C22.1846 2.03956 22.5918 2.00196 23 2ZM7 9C7.00439 5.13574 10.1357 2.0044 14 2H16C16.4082 2.00196 16.8154 2.03956 17.2168 2.1128C15.1782 3.81934 14 6.34131 14 9V16H7V9ZM6.76807 52.3588C6.57178 52.1416 6.29297 52.018 6 52.018C5.70752 52.018 5.42822 52.1416 5.23193 52.3588L2 56.2377V19.7622L5.23193 23.6411C5.42188 23.8686 5.70313 24.0005 6 24.0005C6.29688 24.0005 6.57812 23.8686 6.76807 23.6411L10 19.7622V56.2377L6.76807 52.3588ZM8.86523 57.9999H3.13477L6 54.562L8.86523 57.9999ZM3.13477 18H8.86523L6 21.438L3.13477 18Z" fill="#08B1C4"/>
<path d="M59 28H48.9741C49.6357 27.1397 49.9961 26.0855 50 25C50.0063 22.8433 48.625 20.9273 46.5767 20.2515C44.5288 19.5762 42.2783 20.294 41 22.0313C39.9458 20.5728 38.1875 19.7959 36.3994 19.9995C34.6113 20.2032 33.0723 21.3555 32.3735 23.0137C31.6743 24.6714 31.9238 26.5777 33.0259 28H23C22.4478 28 22 28.4478 22 29V37C22 37.5523 22.4478 38 23 38H24V59C24 59.5522 24.4478 60 25 60H57C57.5522 60 58 59.5522 58 59V38H59C59.5522 38 60 37.5523 60 37V29C60 28.4478 59.5522 28 59 28ZM45 36H37V30H45V36ZM45 22C46.6567 22 48 23.3433 48 25C48 26.6568 46.6567 28 45 28H42V25C42 23.3433 43.3433 22 45 22ZM34 25C34 23.3433 35.3433 22 37 22C38.6567 22 40 23.3433 40 25V28H37C35.3433 28 34 26.6568 34 25ZM24 30H35V36H24V30ZM26 38H36V58H26V38ZM38 58V38H44V58H38ZM56 58H46V38H56V58ZM58 36H47V30H58V36Z" fill="#08B1C4"/>
</svg>
