<svg width="60" height="60" viewBox="0 0 60 60" fill="none" xmlns="http://www.w3.org/2000/svg">
<path d="M54.9999 0H5.00003C2.23992 0.00328125 0.00328124 2.23992 0 5.00004V55.0001C0.00328124 57.7601 2.23992 59.9967 5.00003 60H55C57.76 59.9967 59.9966 57.7601 60 55V5.00004C59.9966 2.23992 57.76 0.00328125 54.9999 0ZM57.9999 55C57.9999 56.6568 56.6568 58 54.9999 58H5.00003C3.34324 58 2.00004 56.6569 2.00004 55V9.99996H58L57.9999 55ZM57.9999 8.00004H2.00004V5.00004C2.00004 3.34324 3.34324 2.00004 5.00003 2.00004H55C56.6568 2.00004 58 3.34324 58 5.00004L57.9999 8.00004Z" fill="#08B1C4"/>
<path d="M6.99995 3.99996H5.99999C5.44769 3.99996 5.00003 4.44762 5.00003 4.99992C5.00003 5.55223 5.44769 6 5.99999 6H6.99995C7.55226 6 7.99991 5.55235 7.99991 5.00004C7.99991 4.44774 7.55226 3.99996 6.99995 3.99996Z" fill="#08B1C4"/>
<path d="M11.5599 4.17001C11.504 4.13227 11.4436 4.10204 11.3799 4.08001C11.3201 4.04965 11.2555 4.02938 11.1889 4.02001C10.863 3.96059 10.5283 4.06102 10.2889 4.29001C9.90221 4.68434 9.90221 5.31563 10.2889 5.70997C10.4808 5.8929 10.7348 5.99649 10.9999 6.00001C11.0633 5.99837 11.1266 5.99169 11.1889 5.97997C11.2555 5.97059 11.3201 5.95032 11.3799 5.91997C11.4436 5.89794 11.5042 5.8677 11.5599 5.82997C11.6121 5.79282 11.6622 5.75274 11.7099 5.70997C11.8003 5.61434 11.8717 5.50231 11.9199 5.37997C11.9711 5.25973 11.9983 5.13059 12 4.99993C11.9961 4.7352 11.8925 4.48173 11.7099 4.28989C11.6622 4.24723 11.6122 4.20715 11.5599 4.17001Z" fill="#08B1C4"/>
<path d="M14.6199 4.08C14.4976 4.12828 14.3856 4.19965 14.2899 4.29C13.9032 4.68434 13.9032 5.31562 14.2899 5.70996C14.3856 5.80031 14.4976 5.87168 14.6199 5.91996C14.7402 5.97117 14.8693 5.99836 15 6C15.265 5.99801 15.5193 5.89418 15.71 5.70996C16.0967 5.31562 16.0967 4.68434 15.71 4.29C15.4224 4.00629 14.9924 3.92344 14.6199 4.08Z" fill="#08B1C4"/>
<path d="M53.9999 3.99996H20C19.4477 3.99996 19 4.44762 19 4.99992C19 5.55223 19.4477 5.99989 20 5.99989H53.9999C54.5522 5.99989 54.9999 5.55223 54.9999 4.99992C54.9999 4.44762 54.5522 3.99996 53.9999 3.99996Z" fill="#08B1C4"/>
<path d="M6.92601 27H17.0739C18.1372 26.9989 18.9989 26.1373 18.9999 25.074V14.9261C18.9989 13.8628 18.1372 13.0011 17.0739 13.0001H6.92601C5.86277 13.0011 5.00109 13.8628 5.00003 14.9261V25.074C5.00109 26.1373 5.86277 26.9989 6.92601 27ZM6.99995 15H16.9999V25H6.99995V15Z" fill="#08B1C4"/>
<path d="M24.926 27H35.0739C36.1372 26.9989 36.9988 26.1373 36.9999 25.074V14.9261C36.9988 13.8628 36.1372 13.0011 35.0739 13.0001H24.926C23.8627 13.0011 23.001 13.8628 23 14.9261V25.074C23.001 26.1373 23.8627 26.9989 24.926 27ZM24.9999 15H34.9999V25H24.9999V15Z" fill="#08B1C4"/>
<path d="M42.9259 27H53.0739C54.1371 26.9989 54.9988 26.1373 54.9999 25.074V14.9261C54.9988 13.8628 54.1371 13.0011 53.0739 13.0001H42.9259C41.8627 13.0011 41.001 13.8628 41 14.9261V25.074C41.001 26.1373 41.8627 26.9989 42.9259 27ZM42.9999 15H52.9998V25H42.9999V15Z" fill="#08B1C4"/>
<path d="M6.99995 31H16.9999C17.5522 31 17.9999 30.5523 17.9999 30C17.9999 29.4477 17.5521 29 16.9999 29H6.99995C6.44765 29 5.99999 29.4477 5.99999 30C5.99999 30.5523 6.44777 31 6.99995 31Z" fill="#08B1C4"/>
<path d="M6.99995 35H16.9999C17.5522 35 17.9999 34.5524 17.9999 34.0001C17.9999 33.4478 17.5521 33.0001 16.9999 33.0001H6.99995C6.44765 33.0001 5.99999 33.4478 5.99999 34.0001C5.99999 34.5524 6.44777 35 6.99995 35Z" fill="#08B1C4"/>
<path d="M6.99995 39H16.9999C17.5522 39 17.9999 38.5523 17.9999 38C17.9999 37.4477 17.5521 37.0001 16.9999 37.0001H6.99995C6.44765 37.0001 5.99999 37.4477 5.99999 38C5.99999 38.5523 6.44777 39 6.99995 39Z" fill="#08B1C4"/>
<path d="M24.9999 31H34.9999C35.5522 31 35.9998 30.5523 35.9998 30C35.9998 29.4477 35.5522 29 34.9999 29H24.9999C24.4476 29 24 29.4477 24 30C24 30.5523 24.4477 31 24.9999 31Z" fill="#08B1C4"/>
<path d="M24.9999 35H34.9999C35.5522 35 35.9998 34.5524 35.9998 34.0001C35.9998 33.4478 35.5522 33.0001 34.9999 33.0001H24.9999C24.4476 33.0001 24 33.4478 24 34.0001C24 34.5524 24.4477 35 24.9999 35Z" fill="#08B1C4"/>
<path d="M24.9999 39H34.9999C35.5522 39 35.9998 38.5523 35.9998 38C35.9998 37.4477 35.5522 37.0001 34.9999 37.0001H24.9999C24.4476 37.0001 24 37.4477 24 38C24 38.5523 24.4477 39 24.9999 39Z" fill="#08B1C4"/>
<path d="M42.9999 31H52.9998C53.5521 31 53.9998 30.5523 53.9998 30C53.9998 29.4477 53.552 29 52.9998 29H42.9999C42.4476 29 41.9999 29.4477 41.9999 30C41.9999 30.5523 42.4477 31 42.9999 31Z" fill="#08B1C4"/>
<path d="M42.9999 35H52.9998C53.5521 35 53.9998 34.5524 53.9998 34.0001C53.9998 33.4478 53.552 33.0001 52.9998 33.0001H42.9999C42.4476 33.0001 41.9999 33.4478 41.9999 34.0001C41.9999 34.5524 42.4477 35 42.9999 35Z" fill="#08B1C4"/>
<path d="M42.9999 39H52.9998C53.5521 39 53.9998 38.5523 53.9998 38C53.9998 37.4477 53.552 37.0001 52.9998 37.0001H42.9999C42.4476 37.0001 41.9999 37.4477 41.9999 38C41.9999 38.5523 42.4477 39 42.9999 39Z" fill="#08B1C4"/>
<path d="M49.9999 43H18.9999C18.9396 43.0064 18.88 43.0184 18.8219 43.0359C18.7632 43.0396 18.705 43.0486 18.6479 43.0629L10.6479 46.0629C10.2576 46.2096 9.99946 46.583 9.99982 46.9999V49C9.99935 49.4168 10.2576 49.7903 10.6479 49.937L18.6479 52.937C18.7607 52.9782 18.8798 52.9996 18.9999 53H49.9998C52.7612 53 54.9998 50.7615 54.9998 48C54.9998 45.2385 52.7613 43 49.9999 43ZM18 50.557L12 48.307V47.6931L18 45.4431V50.557ZM43.9999 51H20V45H43.9999V51ZM49.9999 51H46V45H49.9999C51.6567 45 52.9999 46.3432 52.9999 48C52.9999 49.6568 51.6567 51 49.9999 51Z" fill="#08B1C4"/>
<path d="M5.99999 49H8.00003C8.55233 49 8.99999 48.5523 8.99999 48C8.99999 47.4477 8.55233 47 8.00003 47H5.99999C5.44769 47 5.00003 47.4477 5.00003 48C5.00003 48.5523 5.44769 49 5.99999 49Z" fill="#08B1C4"/>
</svg>
