<svg width="21" height="21" viewBox="0 0 21 21" fill="none" xmlns="http://www.w3.org/2000/svg">
<path d="M20.1236 12.0202C20.2019 11.5244 20.2432 11.0172 20.2432 10.4994C20.2432 5.11838 15.8812 0.756516 10.5 0.756516C9.98368 0.756516 9.47499 0.799041 8.97963 0.876524C8.0823 0.321306 7.02323 0 5.88824 0C2.63666 0 0.000640869 2.63567 0.000640869 5.88759C0.000640869 7.02234 0.322142 8.08054 0.877116 8.97967C0.800317 9.4763 0.758036 9.98191 0.758036 10.4996C0.758036 15.8811 5.1199 20.2416 10.4998 20.2416C11.0166 20.2416 11.5255 20.2018 12.0208 20.1236C12.919 20.6778 13.9772 21 15.112 21C18.3644 21 21.0002 18.3636 21.0002 15.1118C21.0004 13.9766 20.6791 12.9186 20.1236 12.0202ZM15.1259 14.9306C14.7137 15.524 14.1083 15.9877 13.3171 16.3211C12.5244 16.6554 11.5874 16.8217 10.5054 16.8217C9.20856 16.8217 8.13484 16.5948 7.28732 16.1365C6.68655 15.8084 6.19792 15.3682 5.82228 14.8193C5.44585 14.2699 5.255 13.7319 5.255 13.2074C5.255 12.8979 5.373 12.6288 5.60272 12.4094C5.83482 12.1884 6.13377 12.0776 6.48661 12.0776C6.77565 12.0776 7.02391 12.1647 7.22604 12.3371C7.42666 12.5096 7.59495 12.7603 7.73258 13.0911C7.89756 13.4744 8.07674 13.7948 8.26739 14.0504C8.45688 14.3029 8.72355 14.5136 9.06892 14.6786C9.41049 14.844 9.86508 14.9267 10.4339 14.9267C11.2124 14.9267 11.8415 14.7583 12.323 14.4261C12.807 14.0909 13.0394 13.6831 13.0394 13.1902C13.0394 12.7972 12.9141 12.485 12.6571 12.2416C12.3977 11.995 12.0628 11.8073 11.6472 11.6763C11.2299 11.5439 10.6697 11.4035 9.96771 11.2557C9.02503 11.0499 8.23663 10.8104 7.59817 10.5354C6.95888 10.2594 6.44975 9.88202 6.0724 9.40536C5.69426 8.92401 5.50571 8.32573 5.50571 7.61711C5.50571 6.9414 5.70476 6.33711 6.10325 5.81119C6.50155 5.2838 7.07782 4.88013 7.8292 4.59895C8.57796 4.31788 9.45946 4.17727 10.4693 4.17727C11.2769 4.17727 11.9755 4.27072 12.5668 4.45663C13.1565 4.64392 13.648 4.89106 14.041 5.20119C14.4316 5.51063 14.7189 5.83701 14.901 6.17951C15.0828 6.52303 15.1744 6.85854 15.1744 7.18595C15.1744 7.49036 15.0564 7.76646 14.8265 8.00843C14.5965 8.25074 14.3024 8.37426 13.959 8.37314C13.6493 8.37314 13.4064 8.30171 13.238 8.1505C13.0739 8.00423 12.9016 7.77134 12.7153 7.44676C12.4797 6.99388 12.1976 6.64103 11.8695 6.38867C11.55 6.14099 11.023 6.01204 10.2896 6.01361C9.61106 6.01361 9.06814 6.15227 8.65837 6.42343C8.24606 6.69894 8.04896 7.01858 8.04803 7.39311C8.04871 7.6278 8.11619 7.82568 8.25197 7.9949C8.38984 8.16569 8.58167 8.31367 8.82823 8.43841C9.07488 8.56511 9.32578 8.6631 9.57791 8.7336C9.83301 8.80591 10.2563 8.91044 10.8446 9.04885C11.5824 9.20787 12.2516 9.38554 12.853 9.57917C13.4532 9.77378 13.9654 10.0085 14.3885 10.2881C14.815 10.5669 15.1484 10.9223 15.3864 11.3516C15.626 11.7816 15.7454 12.3068 15.7454 12.9248C15.7463 13.6689 15.539 14.3382 15.1259 14.9306Z" fill="#B7C0CD"/>
</svg>
