<svg width="20" height="18" viewBox="0 0 20 18" fill="none" xmlns="http://www.w3.org/2000/svg">
<path d="M0.353259 8.64296L4.96166 10.363L6.74539 16.0994C6.85952 16.4668 7.30879 16.6026 7.60699 16.3588L10.1758 14.2647C10.4451 14.0453 10.8286 14.0344 11.11 14.2386L15.7432 17.6024C16.0622 17.8343 16.5141 17.6595 16.5941 17.274L19.9882 0.947966C20.0755 0.526899 19.6618 0.175633 19.2609 0.330699L0.347859 7.62676C-0.118874 7.80676 -0.114808 8.46756 0.353259 8.64296ZM6.45792 9.44736L15.4645 3.90023C15.6263 3.80083 15.7929 4.0197 15.6539 4.14863L8.22086 11.058C7.95959 11.3012 7.79106 11.6266 7.74332 11.9799L7.49012 13.8563C7.45659 14.1068 7.10466 14.1317 7.03552 13.8892L6.06172 10.4676C5.95019 10.0773 6.11272 9.66043 6.45792 9.44736Z" fill="#B8C0CE"/>
</svg>
