<svg width="23" height="15" viewBox="0 0 23 15" fill="none" xmlns="http://www.w3.org/2000/svg">
<path d="M22.8781 12.7898C22.8502 12.7298 22.8243 12.68 22.8001 12.6401C22.4011 11.9214 21.6385 11.0393 20.5129 9.99341L20.4891 9.96946L20.4772 9.95771L20.4652 9.94568H20.4531C19.9422 9.45867 19.6187 9.13122 19.4832 8.96357C19.2353 8.64421 19.1798 8.32095 19.3153 7.99342C19.411 7.74595 19.7705 7.22334 20.3931 6.42486C20.7205 6.00169 20.9798 5.66254 21.1714 5.40702C22.5526 3.57074 23.1514 2.39733 22.9677 1.88633L22.8964 1.76692C22.8484 1.69503 22.7247 1.62926 22.5253 1.56928C22.3255 1.50943 22.0701 1.49953 21.7587 1.53942L18.3099 1.56324C18.2541 1.54344 18.1743 1.54529 18.0704 1.56928C17.9665 1.59327 17.9146 1.60531 17.9146 1.60531L17.8546 1.6353L17.8069 1.67133C17.767 1.69515 17.7231 1.73706 17.6752 1.79695C17.6275 1.85664 17.5876 1.92668 17.5557 2.0065C17.1802 2.9725 16.7533 3.87063 16.2742 4.70086C15.9788 5.19592 15.7075 5.62496 15.4598 5.98823C15.2123 6.35138 15.0047 6.61893 14.8372 6.79044C14.6695 6.96211 14.518 7.09965 14.3821 7.20354C14.2463 7.30748 14.1426 7.35139 14.0709 7.33533C13.9989 7.31926 13.9312 7.30332 13.8671 7.28738C13.7554 7.21549 13.6655 7.11772 13.5978 6.99399C13.5298 6.87026 13.484 6.71452 13.46 6.52691C13.4362 6.33917 13.4221 6.17769 13.4181 6.04192C13.4143 5.90632 13.4161 5.71451 13.4242 5.46704C13.4325 5.21945 13.4362 5.05193 13.4362 4.9641C13.4362 4.66068 13.4421 4.33138 13.454 3.97612C13.4661 3.62086 13.4758 3.33938 13.484 3.13201C13.4921 2.92443 13.4959 2.70482 13.4959 2.47329C13.4959 2.24176 13.4818 2.06019 13.454 1.9284C13.4265 1.79678 13.3842 1.66902 13.3286 1.54516C13.2726 1.42143 13.1906 1.32572 13.0831 1.25777C12.9753 1.1899 12.8414 1.13605 12.6819 1.09603C12.2588 1.00028 11.7199 0.948478 11.0651 0.940425C9.58029 0.924486 8.62621 1.02037 8.20308 1.22795C8.03543 1.31565 7.88372 1.43548 7.74808 1.58707C7.60434 1.76277 7.58429 1.85865 7.68806 1.87442C8.16714 1.94619 8.50629 2.11786 8.7059 2.38928L8.77783 2.5331C8.83378 2.63687 8.88965 2.82058 8.94556 3.08398C9.00139 3.34739 9.03742 3.63877 9.05327 3.95796C9.09312 4.54085 9.09312 5.03981 9.05327 5.45488C9.0133 5.87012 8.97555 6.19338 8.93952 6.4249C8.90349 6.65643 8.84964 6.84404 8.77783 6.9877C8.7059 7.1314 8.65804 7.21923 8.63405 7.2511C8.6101 7.28298 8.59014 7.30307 8.57428 7.31096C8.47051 7.35072 8.36259 7.37098 8.2509 7.37098C8.13903 7.37098 8.00339 7.31503 7.84375 7.20321C7.68416 7.09138 7.51852 6.93779 7.34685 6.74216C7.17517 6.5465 6.98156 6.27307 6.76593 5.92183C6.55047 5.5706 6.32691 5.15549 6.09538 4.67649L5.90383 4.32912C5.78408 4.10564 5.6205 3.78025 5.41292 3.35322C5.20522 2.92603 5.02163 2.5128 4.86204 2.11362C4.79824 1.94598 4.7024 1.81834 4.57468 1.73051L4.51475 1.69448C4.4749 1.66261 4.41094 1.62876 4.32319 1.59269C4.23532 1.55666 4.14363 1.53082 4.04775 1.51492L0.766558 1.53875C0.431262 1.53875 0.203761 1.61471 0.0839707 1.76642L0.0360294 1.83818C0.0120797 1.87815 0 1.94199 0 2.02986C0 2.11769 0.0239497 2.22549 0.071891 2.35312C0.550885 3.47888 1.07178 4.56459 1.63458 5.6104C2.19737 6.65622 2.68643 7.49865 3.10146 8.13695C3.51658 8.77571 3.9397 9.37856 4.37084 9.94521C4.80197 10.5121 5.08736 10.8754 5.22699 11.0349C5.36678 11.1948 5.47659 11.3144 5.55641 11.3942L5.85584 11.6815C6.04744 11.8732 6.3288 12.1027 6.70004 12.3701C7.07136 12.6376 7.48245 12.901 7.93351 13.1607C8.38465 13.42 8.90949 13.6315 9.50832 13.7952C10.1071 13.9589 10.6898 14.0247 11.2567 13.993H12.6339C12.9132 13.9688 13.1248 13.881 13.2686 13.7294L13.3162 13.6694C13.3483 13.6218 13.3783 13.5477 13.406 13.4481C13.434 13.3483 13.4479 13.2384 13.4479 13.1188C13.4397 12.7756 13.4658 12.4663 13.5256 12.1909C13.5853 11.9155 13.6533 11.708 13.7294 11.5682C13.8054 11.4285 13.8912 11.3106 13.9867 11.2151C14.0825 11.1193 14.1507 11.0613 14.1907 11.0414C14.2304 11.0213 14.2622 11.0076 14.2861 10.9995C14.4777 10.9356 14.7032 10.9974 14.9629 11.1852C15.2224 11.3728 15.4658 11.6045 15.6935 11.8798C15.921 12.1554 16.1944 12.4645 16.5137 12.8078C16.8332 13.1511 17.1125 13.4063 17.3519 13.5742L17.5914 13.7179C17.7512 13.8138 17.9588 13.9017 18.2143 13.9815C18.4694 14.0612 18.6929 14.0812 18.8848 14.0413L21.9503 13.9935C22.2535 13.9935 22.4894 13.9433 22.6568 13.8437C22.8245 13.7439 22.9241 13.634 22.9562 13.5144C22.9883 13.3947 22.99 13.2589 22.9623 13.107C22.9339 12.9556 22.9059 12.8497 22.8781 12.7898Z" fill="#B8C0CE"/>
</svg>
